HIERARCHY
ROOT Hips
{
	OFFSET 0.000000 0.000000 0.000000
	CHANNELS 6 Xposition Yposition Zposition Zrotation Yrotation Xrotation 
	JOINT LowerBack
	{
		OFFSET 0.000000 0.000000 0.000000
		CHANNELS 3 Zrotation Yrotation Xrotation
		JOINT Spine
		{
			OFFSET 0.028270 2.035590 -0.193380
			CHANNELS 3 Zrotation Yrotation Xrotation
			JOINT Spine1
			{
				OFFSET 0.056720 2.048850 -0.042750
				CHANNELS 3 Zrotation Yrotation Xrotation
				JOINT Neck
				{
					OFFSET 0.000000 0.000000 0.000000
					CHANNELS 3 Zrotation Yrotation Xrotation
					JOINT Neck1
					{
						OFFSET -0.054170 1.746240 0.172020
						CHANNELS 3 Zrotation Yrotation Xrotation
						JOINT Head
						{
							OFFSET 0.104070 1.761360 -0.123970
							CHANNELS 3 Zrotation Yrotation Xrotation
							End Site
							{
								OFFSET 0.000000 0.000000 0.000000
							}
						}
					}
				}
				JOINT LeftShoulder
				{
					OFFSET 0.000000 0.000000 0.000000
					CHANNELS 3 Zrotation Yrotation Xrotation
					JOINT LeftArm
					{
						OFFSET 3.362410 1.200890 -0.311210
						CHANNELS 3 Zrotation Yrotation Xrotation
						JOINT LeftForeArm
						{
							OFFSET 4.983000 -0.000000 -0.000000
							CHANNELS 3 Zrotation Yrotation Xrotation
							JOINT LeftHand
							{
								OFFSET 3.483560 -0.000000 -0.000000
								CHANNELS 3 Zrotation Yrotation Xrotation
								JOINT LeftFingerBase
								{
									OFFSET 0.000000 0.000000 0.000000
									CHANNELS 3 Zrotation Yrotation Xrotation
									JOINT LeftHandIndex1
									{
										OFFSET 0.715260 -0.000000 -0.000000
										CHANNELS 3 Zrotation Yrotation Xrotation
										End Site
										{
											OFFSET 0.000000 0.000000 0.000000
										}
									}
								}
								JOINT LThumb
								{
									OFFSET 0.000000 0.000000 0.000000
									CHANNELS 3 Zrotation Yrotation Xrotation
									End Site
									{
										OFFSET 0.000000 0.000000 0.000000
									}
								}
							}
						}
					}
				}
				JOINT RightShoulder
				{
					OFFSET 0.000000 0.000000 0.000000
					CHANNELS 3 Zrotation Yrotation Xrotation
					JOINT RightArm
					{
						OFFSET -3.136600 1.374050 -0.404650
						CHANNELS 3 Zrotation Yrotation Xrotation
						JOINT RightForeArm
						{
							OFFSET -5.241900 -0.000000 -0.000000
							CHANNELS 3 Zrotation Yrotation Xrotation
							JOINT RightHand
							{
								OFFSET -3.444170 -0.000000 -0.000000
								CHANNELS 3 Zrotation Yrotation Xrotation
								JOINT RightFingerBase
								{
									OFFSET 0.000000 0.000000 0.000000
									CHANNELS 3 Zrotation Yrotation Xrotation
									JOINT RightHandIndex1
									{
										OFFSET -0.622530 -0.000000 -0.000000
										CHANNELS 3 Zrotation Yrotation Xrotation
										End Site
										{
											OFFSET 0.000000 0.000000 0.000000
										}
									}
								}
								JOINT RThumb
								{
									OFFSET 0.000000 0.000000 0.000000
									CHANNELS 3 Zrotation Yrotation Xrotation
									End Site
									{
										OFFSET 0.000000 0.000000 0.000000
									}
								}
							}
						}
					}
				}
			}
		}
	}
}
}
MOTION
Frames: 13
Frame Time: 0.008333
1.753115 17.352882 1.658919 177.171868 -68.027463 -164.917673 0.082765 -2.991948 -3.849093 -0.532255 -3.044467 -3.858321 -6.107421 -2.847083 -2.840976 8.116830 -9.850333 1.666549 -3.276132 -0.360351 2.581850 0.000000 0.000000 0.000000 16.540777 -0.569575 -5.211301 -70.002744 -46.789430 -6.367820 177.655625 -53.497648 179.755357 12.620441 -9.052807 -1.156313 -0.144574 1.268681 -0.000000 0.000000 0.000000 0.000000 0.000000 0.000000 0.000000 2.195627 -10.278304 -4.230158 84.874275 38.361129 23.184192 -177.584620 65.547866 179.720044 -20.534741 12.363206 -2.461006 0.258141 -0.988292 -0.000000 0.000000 0.000000 0.000000 0.000000 0.000000 0.000000 
1.754714 17.349480 1.677165 176.746327 -68.751877 -164.211254 0.090559 -3.038895 -3.775514 -0.554692 -3.092534 -3.845214 -6.235498 -2.892192 -2.864089 8.406159 -9.788114 1.491029 -3.296576 -0.359089 2.530318 0.000000 0.000000 0.000000 16.600924 -0.670093 -5.229656 -70.015071 -47.511678 -6.002395 177.680309 -53.960100 179.754146 12.649565 -9.114784 -1.166192 -0.143298 1.271608 -0.000000 0.000000 0.000000 0.000000 0.000000 0.000000 0.000000 2.668108 -10.169667 -3.986186 84.285124 37.217049 22.568212 -177.651161 65.796065 179.722164 -20.600413 12.305678 -2.456766 0.260495 -0.979791 -0.000000 0.000000 0.000000 0.000000 0.000000 0.000000 0.000000 
1.756388 17.345330 1.696462 176.225481 -69.627679 -163.396975 0.128738 -3.094230 -3.689992 -0.573394 -3.151574 -3.830656 -6.376157 -2.948254 -2.889685 8.719187 -9.715671 1.287205 -3.320790 -0.357627 2.470513 0.000000 0.000000 0.000000 16.632970 -0.745387 -5.240296 -70.032439 -48.364236 -5.573297 177.714606 -54.504404 179.752955 12.676323 -9.174439 -1.175661 -0.141796 1.274551 -0.000000 0.000000 0.000000 0.000000 0.000000 0.000000 0.000000 3.205314 -10.043031 -3.730276 83.668099 35.971693 21.913408 -177.719739 66.073829 179.724233 -20.704059 12.232340 -2.453823 0.263506 -0.969935 -0.000000 0.000000 0.000000 0.000000 0.000000 0.000000 0.000000 
1.757462 17.340349 1.716396 175.562588 -70.668634 -162.429751 0.199262 -3.156833 -3.597005 -0.587945 -3.220761 -3.815634 -6.529576 -3.014695 -2.917476 9.046249 -9.630433 1.055577 -3.348461 -0.355946 2.402580 0.000000 0.000000 0.000000 16.624948 -0.787192 -5.241159 -70.061803 -49.356695 -5.065364 177.760068 -55.137156 179.751816 12.702496 -9.222817 -1.183718 -0.140208 1.277165 -0.000000 0.000000 0.000000 0.000000 0.000000 0.000000 0.000000 3.793677 -9.894564 -3.466277 83.037826 34.608561 21.213580 -177.788186 66.368965 179.726329 -20.827436 12.156110 -2.452376 0.266494 -0.959173 -0.000000 0.000000 0.000000 0.000000 0.000000 0.000000 0.000000 
1.757506 17.334465 1.736425 174.681930 -71.889202 -161.239528 0.302106 -3.224749 -3.502869 -0.598136 -3.298255 -3.802126 -6.695149 -3.090089 -2.950008 9.374968 -9.526240 0.799933 -3.378810 -0.354047 2.327632 0.000000 0.000000 0.000000 16.563389 -0.793469 -5.230574 -70.117625 -50.494047 -4.456271 177.817475 -55.870119 179.750691 12.733522 -9.252448 -1.190061 -0.138713 1.279122 -0.000000 0.000000 0.000000 0.000000 0.000000 0.000000 0.000000 4.413728 -9.715126 -3.197487 82.407497 33.102341 20.453452 -177.853914 66.669347 179.728508 -20.947807 12.099964 -2.454124 0.268547 -0.948207 -0.000000 0.000000 0.000000 0.000000 0.000000 0.000000 0.000000 
1.755702 17.327663 1.756015 173.467489 -73.300929 -159.712435 0.433565 -3.294669 -3.414628 -0.604496 -3.380549 -3.792909 -6.872040 -3.171483 -2.992535 9.691199 -9.391995 0.527893 -3.411038 -0.351981 2.247846 0.000000 0.000000 0.000000 16.437608 -0.767447 -5.207656 -70.228571 -51.772655 -3.713878 177.886864 -56.711048 179.749494 12.776776 -9.258554 -1.194690 -0.137538 1.280206 -0.000000 0.000000 0.000000 0.000000 0.000000 0.000000 0.000000 5.041847 -9.489266 -2.926507 81.788935 31.417901 19.605396 -177.913468 66.959920 179.730770 -21.043462 12.092427 -2.461865 0.268710 -0.937885 -0.000000 0.000000 0.000000 0.000000 0.000000 0.000000 0.000000 
1.751628 17.320002 1.774667 171.711564 -74.908577 -157.650451 0.579779 -3.363040 -3.334094 -0.609459 -3.462891 -3.790439 -7.058470 -3.254816 -3.053957 9.982460 -9.214849 0.250895 -3.444850 -0.349882 2.166414 0.000000 0.000000 0.000000 16.244316 -0.720459 -5.173273 -70.438674 -53.178561 -2.796919 177.966755 -57.667979 179.748121 12.838110 -9.240726 -1.198207 -0.136722 1.280327 -0.000000 0.000000 0.000000 0.000000 0.000000 0.000000 0.000000 5.658670 -9.197862 -2.654741 81.189876 29.520127 18.634254 -177.963702 67.227346 179.733036 -21.099882 12.163247 -2.480098 0.266217 -0.929047 -0.000000 0.000000 0.000000 0.000000 0.000000 0.000000 0.000000 
1.744094 17.311523 1.792237 169.095823 -76.719487 -154.725617 0.743140 -3.426107 -3.283100 -0.611796 -3.542004 -3.802427 -7.250890 -3.337940 -3.146511 10.225590 -8.964314 -0.013674 -3.477911 -0.347856 2.088529 0.000000 0.000000 0.000000 15.970360 -0.668601 -5.125598 -70.802683 -54.684275 -1.652009 178.058695 -58.744009 179.746378 12.932109 -9.195960 -1.201606 -0.136868 1.279406 -0.000000 0.000000 0.000000 0.000000 0.000000 0.000000 0.000000 6.219802 -8.801275 -2.384857 80.624438 27.343333 17.481759 -177.997575 67.454025 179.735237 -21.095679 12.328904 -2.509122 0.259819 -0.922160 -0.000000 0.000000 0.000000 0.000000 0.000000 0.000000 0.000000 
1.733218 17.302512 1.808363 164.890941 -78.712120 -150.227375 0.885057 -3.483653 -3.252636 -0.618886 -3.614076 -3.830188 -7.444365 -3.417931 -3.284383 10.414783 -8.625596 -0.247520 -3.512556 -0.346301 2.019166 0.000000 0.000000 0.000000 15.631149 -0.639390 -5.069735 -71.398136 -56.247894 -0.218759 178.159766 -59.940066 179.744201 13.058875 -9.133142 -1.205795 -0.137749 1.277656 -0.000000 0.000000 0.000000 0.000000 0.000000 0.000000 0.000000 6.730326 -8.276981 -2.115175 80.088230 24.866583 16.103556 -178.015270 67.644566 179.737161 -21.042611 12.602170 -2.552739 0.249603 -0.917363 -0.000000 0.000000 0.000000 0.000000 0.000000 0.000000 0.000000 
1.718865 17.293250 1.822935 157.518807 -80.847395 -142.586213 0.972484 -3.546125 -3.242949 -0.637830 -3.686518 -3.877244 -7.632131 -3.502736 -3.482545 10.541704 -8.174983 -0.428207 -3.550281 -0.345636 1.964624 0.000000 0.000000 0.000000 15.239401 -0.666367 -5.010431 -72.312286 -57.815501 1.572370 178.270011 -61.252537 179.741563 13.218914 -9.058951 -1.211575 -0.139443 1.275300 -0.000000 0.000000 0.000000 0.000000 0.000000 0.000000 0.000000 7.189333 -7.597630 -1.844636 79.580819 22.062763 14.445944 -178.015634 67.801323 179.738613 -20.957497 12.973542 -2.610651 0.235752 -0.914151 -0.000000 0.000000 0.000000 0.000000 0.000000 0.000000 0.000000 
1.700050 17.283950 1.836536 143.098323 -83.041382 -127.904104 1.038977 -3.647347 -3.281889 -0.666209 -3.796374 -3.952766 -7.805706 -3.627687 -3.752173 10.586286 -7.579313 -0.530018 -3.591065 -0.346229 1.932594 0.000000 0.000000 0.000000 14.793472 -0.794342 -4.948321 -73.626518 -59.317864 3.790481 178.397171 -62.675442 179.738466 13.420069 -8.971545 -1.219323 -0.143012 1.272505 -0.000000 0.000000 0.000000 0.000000 0.000000 0.000000 0.000000 7.577652 -6.738156 -1.573747 79.107139 18.891768 12.447681 -177.996836 67.926818 179.739630 -20.848303 13.392967 -2.673372 0.218132 -0.910805 -0.000000 0.000000 0.000000 0.000000 0.000000 0.000000 0.000000 
1.678233 17.275078 1.848727 113.140925 -84.850326 -97.727423 1.306494 -3.809744 -3.331945 -0.672121 -3.985678 -4.053857 -7.968791 -3.824961 -4.096518 10.559725 -6.845872 -0.536887 -3.642551 -0.348559 1.927203 0.000000 0.000000 0.000000 14.328683 -1.064506 -4.899250 -75.452660 -60.685412 6.509740 178.542928 -64.200508 179.735313 13.639355 -8.885678 -1.228732 -0.148245 1.269813 -0.000000 0.000000 0.000000 0.000000 0.000000 0.000000 0.000000 7.954066 -5.724021 -1.294447 78.637454 15.416477 10.094801 -177.971040 68.055040 179.740031 -20.789032 13.826356 -2.744109 0.199081 -0.905521 -0.000000 0.000000 0.000000 0.000000 0.000000 0.000000 0.000000 
1.652906 17.266895 1.860272 72.471136 -84.978296 -56.863389 1.987765 -3.810651 -3.409595 -0.596978 -4.052581 -4.192541 -8.108462 -3.899439 -4.518906 10.445179 -5.965746 -0.442988 -3.706686 -0.352549 1.950630 0.000000 0.000000 0.000000 13.857690 -1.380917 -4.892488 -77.837414 -61.800126 9.754501 178.688428 -65.787910 179.732129 13.875344 -8.798431 -1.239044 -0.154081 1.266118 -0.000000 0.000000 0.000000 0.000000 0.000000 0.000000 0.000000 8.309121 -4.456453 -0.992298 78.153646 11.716229 7.388325 -177.956224 68.235758 179.740226 -20.812186 14.179893 -2.810022 0.181576 -0.896795 -0.000000 0.000000 0.000000 0.000000 0.000000 0.000000 0.000000 
